<svg xmlns="http://www.w3.org/2000/svg" viewBox="0 0 512 512"><defs><linearGradient id="b" x1="0" y1="0" x2="1" y2="1"><stop stop-color="#fff3df"/><stop offset="1" stop-color="#c98d59"/></linearGradient><radialGradient id="g" cx="50%" cy="38%" r="62%"><stop stop-color="#fff8e7"/><stop offset="1" stop-color="#6b3b27"/></radialGradient></defs><rect width="512" height="512" rx="56" fill="#241711"/><circle cx="256" cy="284" r="188" fill="url(#g)"/><path d="M122 135c-46-52-85-35-79 22 3 33 28 63 72 81 17-25 22-57 7-103Zm268 0c46-52 85-35 79 22-3 33-28 63-72 81-17-25-22-57-7-103Z" fill="#5f3424"/><path d="M147 109c-21-46-3-74 33-46 22 18 32 50 23 88Zm218 0c21-46 3-74-33-46-22 18-32 50-23 88Z" fill="#e8d5a6"/><ellipse cx="256" cy="314" rx="103" ry="84" fill="url(#b)"/><path d="M183 236c38-35 57-33 83 2 29-36 53-38 86-1 5-55-37-98-96-98s-102 42-73 97Z" fill="#f5ead7"/><circle cx="205" cy="254" r="20" fill="#1b1010"/><circle cx="308" cy="254" r="20" fill="#1b1010"/><ellipse cx="226" cy="324" rx="16" ry="11" fill="#4b2a21"/><ellipse cx="287" cy="324" rx="16" ry="11" fill="#4b2a21"/><path d="M177 386c56 38 103 38 158 0" fill="none" stroke="#4b2a21" stroke-width="18" stroke-linecap="round"/><text x="256" y="470" text-anchor="middle" font-family="Verdana" font-size="34" font-weight="700" fill="#fff3df">Cow</text></svg>