<svg xmlns="http://www.w3.org/2000/svg" viewBox="0 0 512 512"><defs><linearGradient id="bg" x1="0" y1="0" x2="1" y2="1"><stop stop-color="#2d1712"/><stop offset="1" stop-color="#0e0807"/></linearGradient></defs><rect width="512" height="512" rx="56" fill="url(#bg)"/><path d="M117 132c-62-40-83 11-42 63 22 28 58 45 107 49-1-43-22-82-65-112Zm278 0c62-40 83 11 42 63-22 28-58 45-107 49 1-43 22-82 65-112Z" fill="#e5c06a"/><path d="M149 169c24-64 190-64 214 0 20 53-9 155-107 155s-127-102-107-155Z" fill="#8b4a2d"/><path d="M173 333c36-42 130-42 166 0 34 39 17 97-83 97s-117-58-83-97Z" fill="#be7a4f"/><circle cx="212" cy="240" r="18" fill="#1a0c08"/><circle cx="300" cy="240" r="18" fill="#1a0c08"/><path d="M160 146c31-73 161-73 192 0-35-31-157-31-192 0Z" fill="#2a130d"/><path d="M215 363h82" stroke="#2a130d" stroke-width="16" stroke-linecap="round"/><ellipse cx="228" cy="330" rx="13" ry="10" fill="#2a130d"/><ellipse cx="284" cy="330" rx="13" ry="10" fill="#2a130d"/><path d="M119 410c48 35 226 35 274 0" stroke="#e5c06a" stroke-width="14" stroke-linecap="round" fill="none" opacity=".75"/><text x="256" y="472" text-anchor="middle" font-family="Verdana" font-size="30" font-weight="700" fill="#f4df9c">Minotaur</text></svg>