<svg xmlns="http://www.w3.org/2000/svg" viewBox="0 0 512 512"><defs><radialGradient id="m" cx="50%" cy="30%" r="70%"><stop stop-color="#eaf6ff"/><stop offset="1" stop-color="#31415b"/></radialGradient></defs><rect width="512" height="512" rx="56" fill="#101827"/><circle cx="256" cy="90" r="42" fill="#dbeafe" opacity=".9"/><path d="M98 160c-66-35-77 42-17 91 39 32 81 29 104-5-11-35-39-67-87-86Zm316 0c66-35 77 42 17 91-39 32-81 29-104-5 11-35 39-67 87-86Z" fill="#b7c9dc"/><ellipse cx="256" cy="278" rx="172" ry="158" fill="url(#m)"/><path d="M130 289c44-95 208-127 252-4-35-38-85-58-126-58s-91 20-126 62Z" fill="#e9f3ff" opacity=".8"/><circle cx="206" cy="268" r="17" fill="#0b1220"/><circle cx="306" cy="268" r="17" fill="#0b1220"/><ellipse cx="256" cy="345" rx="80" ry="58" fill="#d8e8f7"/><ellipse cx="231" cy="340" rx="12" ry="9" fill="#263348"/><ellipse cx="282" cy="340" rx="12" ry="9" fill="#263348"/><path d="M206 392c34 25 66 25 100 0" stroke="#263348" stroke-width="13" stroke-linecap="round" fill="none"/><path d="M135 400c59 41 183 41 242 0" stroke="#dbeafe" stroke-width="12" stroke-linecap="round" opacity=".65"/><text x="256" y="472" text-anchor="middle" font-family="Verdana" font-size="30" font-weight="700" fill="#dbeafe">Moon Yak</text></svg>