<svg xmlns="http://www.w3.org/2000/svg" viewBox="0 0 512 512"><defs><linearGradient id="h" x1="0" y1="0" x2="1" y2="1"><stop stop-color="#d99555"/><stop offset="1" stop-color="#5b2f1e"/></linearGradient></defs><rect width="512" height="512" rx="56" fill="#1e140f"/><path d="M190 122c38-55 94-55 132 0 28 41 31 104 12 171-17 62-39 129-78 129s-61-67-78-129c-19-67-16-130 12-171Z" fill="url(#h)"/><path d="M209 108c25-48 69-52 94 0-31-18-63-17-94 0Z" fill="#2d1710"/><path d="M172 145c-46-41-82-12-59 37 15 32 47 49 82 45Zm168 0c46-41 82-12 59 37-15 32-47 49-82 45Z" fill="#8b4b2d"/><circle cx="220" cy="251" r="16" fill="#120906"/><circle cx="292" cy="251" r="16" fill="#120906"/><ellipse cx="256" cy="342" rx="62" ry="55" fill="#c17943"/><ellipse cx="235" cy="332" rx="10" ry="8" fill="#2c160f"/><ellipse cx="277" cy="332" rx="10" ry="8" fill="#2c160f"/><path d="M224 379c23 17 41 17 64 0" stroke="#2c160f" stroke-width="12" stroke-linecap="round" fill="none"/><path d="M256 83c-20 46-17 117 0 174 18-60 20-130 0-174Z" fill="#f2cf86" opacity=".75"/><text x="256" y="472" text-anchor="middle" font-family="Verdana" font-size="34" font-weight="700" fill="#f2cf86">Horse</text></svg>