<svg xmlns="http://www.w3.org/2000/svg" viewBox="0 0 512 512"><defs><linearGradient id="n" x1="0" y1="0" x2="1" y2="1"><stop stop-color="#27152f"/><stop offset="1" stop-color="#050308"/></linearGradient><linearGradient id="f" x1="0" y1="0" x2="1" y2="1"><stop stop-color="#ff8a00"/><stop offset="1" stop-color="#ff1744"/></linearGradient></defs><rect width="512" height="512" rx="56" fill="#09060d"/><path d="M190 120c38-55 94-55 132 0 29 42 32 104 13 172-18 63-40 130-79 130s-61-67-79-130c-19-68-16-130 13-172Z" fill="url(#n)"/><path d="M167 149c-51-43-85-10-58 41 17 31 50 45 88 37Zm178 0c51-43 85-10 58 41-17 31-50 45-88 37Z" fill="#1a0c22"/><path d="M206 91c34-35 66-35 100 0-26 38-56 84-50 167-18-75-36-124-50-167Z" fill="url(#f)"/><circle cx="219" cy="253" r="17" fill="#ff3b1f"/><circle cx="293" cy="253" r="17" fill="#ff3b1f"/><ellipse cx="256" cy="346" rx="65" ry="56" fill="#201025"/><ellipse cx="235" cy="336" rx="10" ry="8" fill="#ff7a18"/><ellipse cx="277" cy="336" rx="10" ry="8" fill="#ff7a18"/><path d="M223 383c25 18 41 18 66 0" stroke="#ff7a18" stroke-width="12" stroke-linecap="round" fill="none"/><path d="M139 405c58 36 176 36 234 0" stroke="#ff3b1f" stroke-width="12" stroke-linecap="round" opacity=".7"/><text x="256" y="472" text-anchor="middle" font-family="Verdana" font-size="31" font-weight="700" fill="#ffb15e">Nightmare</text></svg>