<svg xmlns="http://www.w3.org/2000/svg" viewBox="0 0 512 512"><defs><linearGradient id="u" x1="0" y1="0" x2="1" y2="1"><stop stop-color="#ffffff"/><stop offset="1" stop-color="#c7f9ff"/></linearGradient><linearGradient id="horn" x1="0" y1="0" x2="0" y2="1"><stop stop-color="#fff7a8"/><stop offset="1" stop-color="#d66bff"/></linearGradient></defs><rect width="512" height="512" rx="56" fill="#16223c"/><path d="M256 58l-35 122h70Z" fill="url(#horn)"/><path d="M187 127c39-50 99-50 138 0 30 39 34 98 15 165-17 62-42 130-84 130s-67-68-84-130c-19-67-15-126 15-165Z" fill="url(#u)"/><path d="M169 148c-49-38-82-5-55 43 16 28 48 42 82 37Zm174 0c49-38 82-5 55 43-16 28-48 42-82 37Z" fill="#dff7ff"/><path d="M202 106c23-39 85-41 108 0-34-12-71-12-108 0Z" fill="#f7b7ff"/><circle cx="219" cy="253" r="16" fill="#10182b"/><circle cx="293" cy="253" r="16" fill="#10182b"/><ellipse cx="256" cy="346" rx="65" ry="56" fill="#eefbff"/><ellipse cx="235" cy="336" rx="10" ry="8" fill="#33415f"/><ellipse cx="277" cy="336" rx="10" ry="8" fill="#33415f"/><path d="M223 383c25 18 41 18 66 0" stroke="#33415f" stroke-width="12" stroke-linecap="round" fill="none"/><circle cx="130" cy="119" r="9" fill="#ffe86b"/><circle cx="382" cy="119" r="9" fill="#ff9ff8"/><text x="256" y="472" text-anchor="middle" font-family="Verdana" font-size="32" font-weight="700" fill="#f7e8ff">Unicorn</text></svg>