<svg xmlns="http://www.w3.org/2000/svg" viewBox="0 0 640 420"><defs><linearGradient id="sky" x1="0" y1="0" x2="0" y2="1"><stop stop-color="#cde8ff"/><stop offset="1" stop-color="#e2b16f"/></linearGradient></defs><rect width="640" height="420" rx="34" fill="url(#sky)"/><path d="M0 318c119-41 225-47 319 0s214 45 321-7v109H0Z" fill="#b77a3f"/><path d="M101 263h438v105H101Z" fill="#a86d3d"/><path d="M81 263h478L493 180H147Z" fill="#5f3221"/><path d="M163 296h92v72h-92Zm224-69h90v141h-90Z" fill="#2c1710"/><path d="M80 354h480" stroke="#f3d18b" stroke-width="18" stroke-linecap="round"/><path d="M82 195c81-48 161-72 238-72s157 24 238 72" stroke="#f8e6b5" stroke-width="15" stroke-linecap="round" fill="none"/><circle cx="555" cy="83" r="38" fill="#fff0a5"/><text x="320" y="402" text-anchor="middle" font-family="Verdana" font-size="36" font-weight="700" fill="#fff0c7">Equine Habitat</text></svg>