<svg xmlns="http://www.w3.org/2000/svg" viewBox="0 0 640 420"><defs><linearGradient id="sky" x1="0" y1="0" x2="0" y2="1"><stop stop-color="#f8d7ff"/><stop offset="1" stop-color="#b7f0b1"/></linearGradient></defs><rect width="640" height="420" rx="34" fill="url(#sky)"/><path d="M0 321c123-57 196-54 306-5s222 55 334-7v111H0Z" fill="#5ea84d"/><path d="M116 252c38-80 104-119 195-119s158 39 202 119v112H116Z" fill="#f7e6c8"/><path d="M167 244c26-45 75-68 144-68s118 23 144 68Z" fill="#d7a671"/><path d="M257 284h104v80H257Z" fill="#5a3826"/><circle cx="125" cy="166" r="30" fill="#fff7ed"/><circle cx="504" cy="159" r="28" fill="#fff7ed"/><path d="M59 349c55-32 105-33 149 0m225 0c55-32 105-33 149 0" stroke="#fff7ed" stroke-width="16" stroke-linecap="round" fill="none"/><text x="320" y="402" text-anchor="middle" font-family="Verdana" font-size="36" font-weight="700" fill="#fff7ed">Lapine Habitat</text></svg>