<svg xmlns="http://www.w3.org/2000/svg" viewBox="0 0 760 440"><defs><linearGradient id="dawn" x2="0" y2="1"><stop stop-color="#31495c"/><stop offset=".55" stop-color="#d49358"/><stop offset="1" stop-color="#5d673d"/></linearGradient></defs><rect width="760" height="440" rx="30" fill="url(#dawn)"/><circle cx="620" cy="86" r="48" fill="#ffd483" opacity=".88"/><path d="M0 310q160-80 330 0t430-30v160H0z" fill="#37452d"/><path d="M62 330h636" stroke="#6e4727" stroke-width="18"/><path d="M108 216v166M252 204v178M410 212v170M574 198v184M684 210v172" stroke="#916038" stroke-width="26"/><path d="M120 286q50-92 100 0M244 294q58-104 116 0M506 290q54-96 108 0" fill="#182025" stroke="#101417" stroke-width="10"/><path d="M146 264l-30-38M194 264l30-38M274 268l-34-42M330 268l34-42M536 266l-32-40M586 266l32-40" stroke="#c86f47" stroke-width="10" stroke-linecap="round"/><path d="M250 338q130 46 260 0" fill="none" stroke="#f0c55f" stroke-width="12" stroke-dasharray="18 14"/><rect x="74" y="44" width="612" height="82" rx="22" fill="#10171b" opacity=".88"/><text x="380" y="82" fill="#b9f4c6" font-family="Georgia,serif" font-size="42" font-weight="700" text-anchor="middle">PREDATORS REPELLED</text><text x="380" y="112" fill="#fff0c8" font-family="Arial,sans-serif" font-size="20" text-anchor="middle">The patrol caught the threat before it reached the habitats.</text></svg>