<svg xmlns="http://www.w3.org/2000/svg" viewBox="0 0 512 512"><rect width="512" height="512" rx="56" fill="#132a1b"/><path d="M181 197c-51-121-11-176 37-90 29 52 30 94 15 142Zm150 0c51-121 11-176-37-90-29 52-30 94-15 142Z" fill="#c28b58"/><path d="M151 130c-32-24-49-55-40-85m40 85c14-37 39-66 76-82m134 82c32-24 49-55 40-85m-40 85c-14-37-39-66-76-82" stroke="#d7b66d" stroke-width="18" stroke-linecap="round" fill="none"/><ellipse cx="256" cy="302" rx="150" ry="139" fill="#b97947"/><path d="M160 258c60-66 133-68 193-1-31-15-64-23-97-23s-65 8-96 24Z" fill="#e7c38f"/><circle cx="208" cy="286" r="17" fill="#102012"/><circle cx="304" cy="286" r="17" fill="#102012"/><path d="M256 319l-22 19h44Z" fill="#714027"/><path d="M220 368c30 24 42 24 72 0" stroke="#412515" stroke-width="13" stroke-linecap="round" fill="none"/><circle cx="146" cy="77" r="11" fill="#8ef08b"/><circle cx="366" cy="77" r="11" fill="#8ef08b"/><text x="256" y="472" text-anchor="middle" font-family="Verdana" font-size="30" font-weight="700" fill="#d7f7bf">Antlerhare</text></svg>