<svg xmlns="http://www.w3.org/2000/svg" viewBox="0 0 512 512"><defs><linearGradient id="f" x1="0" y1="0" x2="1" y2="1"><stop stop-color="#fff7ed"/><stop offset="1" stop-color="#f4a7bf"/></linearGradient></defs><rect width="512" height="512" rx="56" fill="#2c1825"/><path d="M178 197c-58-128-17-184 39-89 29 49 35 99 18 142Zm156 0c58-128 17-184-39-89-29 49-35 99-18 142Z" fill="#f7d6df"/><path d="M194 185c-31-86-6-116 24-49 18 40 19 78 6 108Zm124 0c31-86 6-116-24-49-18 40-19 78-6 108Z" fill="#f087a7" opacity=".8"/><ellipse cx="256" cy="300" rx="151" ry="145" fill="url(#f)"/><circle cx="207" cy="282" r="18" fill="#29131d"/><circle cx="305" cy="282" r="18" fill="#29131d"/><path d="M256 313l-23 22h46Z" fill="#ec6f96"/><path d="M256 333v37M214 365c26 29 58 29 84 0" stroke="#6b2a3b" stroke-width="13" stroke-linecap="round" fill="none"/><path d="M137 319h67M135 350h72M308 319h67M305 350h72" stroke="#fff" stroke-width="10" stroke-linecap="round" opacity=".75"/><text x="256" y="472" text-anchor="middle" font-family="Verdana" font-size="34" font-weight="700" fill="#ffd9e3">Bunny</text></svg>