<svg xmlns="http://www.w3.org/2000/svg" viewBox="0 0 512 512"><defs><linearGradient id="d" x1="0" y1="0" x2="1" y2="1"><stop stop-color="#f8e8ff"/><stop offset="1" stop-color="#7c6cff"/></linearGradient></defs><rect width="512" height="512" rx="56" fill="#17142c"/><path d="M174 210c-66-91-38-150 26-96 44 37 58 89 39 141Zm164 0c66-91 38-150-26-96-44 37-58 89-39 141Z" fill="#b8a8ff"/><ellipse cx="256" cy="303" rx="153" ry="142" fill="url(#d)"/><path d="M164 263c62-60 122-62 184 0-29-13-61-20-92-20s-63 7-92 20Z" fill="#fff2ff" opacity=".8"/><circle cx="208" cy="292" r="18" fill="#18102f"/><circle cx="304" cy="292" r="18" fill="#18102f"/><path d="M256 323l-23 18h46Z" fill="#ec8ff5"/><path d="M219 370c28 24 46 24 74 0" stroke="#4b326b" stroke-width="13" stroke-linecap="round" fill="none"/><path d="M129 169c-28 20-47 49-54 85m362-85c28 20 47 49 54 85" stroke="#f8e8ff" stroke-width="10" stroke-linecap="round" opacity=".6"/><circle cx="122" cy="151" r="9" fill="#fff7ad"/><circle cx="390" cy="151" r="9" fill="#fff7ad"/><text x="256" y="472" text-anchor="middle" font-family="Verdana" font-size="31" font-weight="700" fill="#f8e8ff">Dream Lop</text></svg>